<?xml version="1.0" encoding="UTF-8" standalone="no"?>
<svg
   xmlns:dc="http://purl.org/dc/elements/1.1/"
   xmlns:cc="http://creativecommons.org/ns#"
   xmlns:rdf="http://www.w3.org/1999/02/22-rdf-syntax-ns#"
   xmlns:svg="http://www.w3.org/2000/svg"
   xmlns="http://www.w3.org/2000/svg"
   viewBox="0 0 1200 675"
   height="675"
   width="1200"
   xml:space="preserve"
   version="1.1"
   id="svg2"><metadata
     id="metadata8"><rdf:RDF><cc:Work
         rdf:about=""><dc:format>image/svg+xml</dc:format><dc:type
           rdf:resource="http://purl.org/dc/dcmitype/StillImage" /></cc:Work></rdf:RDF></metadata><defs
     id="defs6"><clipPath
       id="clipPath16"
       clipPathUnits="userSpaceOnUse"><path
         style="clip-rule:evenodd"
         id="path18"
         d="m 0,1.2207e-4 960,0 0,539.99999793 -960,0 L 0,1.2207e-4 Z" /></clipPath><clipPath
       id="clipPath30"
       clipPathUnits="userSpaceOnUse"><path
         style="clip-rule:evenodd"
         id="path32"
         d="M 1.4305e-5,0 960.00001,0 l 0,540 -959.999995695,0 0,-540 z" /></clipPath><clipPath
       id="clipPath46"
       clipPathUnits="userSpaceOnUse"><path
         style="clip-rule:evenodd"
         id="path48"
         d="M 1.4305e-5,0 960.00001,0 l 0,540 -959.999995695,0 0,-540 z" /></clipPath><clipPath
       id="clipPath58"
       clipPathUnits="userSpaceOnUse"><path
         style="clip-rule:evenodd"
         id="path60"
         d="M 1.4305e-5,0 960.00001,0 l 0,540 -959.999995695,0 0,-540 z" /></clipPath><clipPath
       id="clipPath74"
       clipPathUnits="userSpaceOnUse"><path
         style="clip-rule:evenodd"
         id="path76"
         d="M 1.4305e-5,0 960.00001,0 l 0,540 -959.999995695,0 0,-540 z" /></clipPath><clipPath
       id="clipPath90"
       clipPathUnits="userSpaceOnUse"><path
         style="clip-rule:evenodd"
         id="path92"
         d="M 1.4305e-5,0 960.00001,0 l 0,540 -959.999995695,0 0,-540 z" /></clipPath><clipPath
       id="clipPath106"
       clipPathUnits="userSpaceOnUse"><path
         style="clip-rule:evenodd"
         id="path108"
         d="M 1.4305e-5,0 960.00001,0 l 0,540 -959.999995695,0 0,-540 z" /></clipPath><clipPath
       id="clipPath126"
       clipPathUnits="userSpaceOnUse"><path
         style="clip-rule:evenodd"
         id="path128"
         d="M 1.4305e-5,0 960.00001,0 l 0,540 -959.999995695,0 0,-540 z" /></clipPath><clipPath
       id="clipPath148"
       clipPathUnits="userSpaceOnUse"><path
         style="clip-rule:evenodd"
         id="path150"
         d="M 1.4305e-5,0 960.00001,0 l 0,540 -959.999995695,0 0,-540 z" /></clipPath><clipPath
       id="clipPath166"
       clipPathUnits="userSpaceOnUse"><path
         style="clip-rule:evenodd"
         id="path168"
         d="M 1.4305e-5,0 960.00001,0 l 0,540 -959.999995695,0 0,-540 z" /></clipPath><clipPath
       id="clipPath178"
       clipPathUnits="userSpaceOnUse"><path
         style="clip-rule:evenodd"
         id="path180"
         d="M 1.4305e-5,0 960.00001,0 l 0,540 -959.999995695,0 0,-540 z" /></clipPath><clipPath
       id="clipPath200"
       clipPathUnits="userSpaceOnUse"><path
         style="clip-rule:evenodd"
         id="path202"
         d="M 1.4305e-5,0 960.00001,0 l 0,540 -959.999995695,0 0,-540 z" /></clipPath><clipPath
       id="clipPath212"
       clipPathUnits="userSpaceOnUse"><path
         style="clip-rule:evenodd"
         id="path214"
         d="M 1.4305e-5,0 960.00001,0 l 0,540 -959.999995695,0 0,-540 z" /></clipPath><clipPath
       id="clipPath228"
       clipPathUnits="userSpaceOnUse"><path
         style="clip-rule:evenodd"
         id="path230"
         d="M 1.4305e-5,0 960.00001,0 l 0,540 -959.999995695,0 0,-540 z" /></clipPath><clipPath
       id="clipPath240"
       clipPathUnits="userSpaceOnUse"><path
         style="clip-rule:evenodd"
         id="path242"
         d="M 1.4305e-5,0 960.00001,0 l 0,540 -959.999995695,0 0,-540 z" /></clipPath><clipPath
       id="clipPath252"
       clipPathUnits="userSpaceOnUse"><path
         style="clip-rule:evenodd"
         id="path254"
         d="M 1.4305e-5,0 960.00001,0 l 0,540 -959.999995695,0 0,-540 z" /></clipPath><clipPath
       id="clipPath264"
       clipPathUnits="userSpaceOnUse"><path
         style="clip-rule:evenodd"
         id="path266"
         d="M 1.4305e-5,0 960.00001,0 l 0,540 -959.999995695,0 0,-540 z" /></clipPath><clipPath
       id="clipPath276"
       clipPathUnits="userSpaceOnUse"><path
         style="clip-rule:evenodd"
         id="path278"
         d="M 1.4305e-5,0 960.00001,0 l 0,540 -959.999995695,0 0,-540 z" /></clipPath><clipPath
       id="clipPath288"
       clipPathUnits="userSpaceOnUse"><path
         style="clip-rule:evenodd"
         id="path290"
         d="M 1.4305e-5,0 960.00001,0 l 0,540 -959.999995695,0 0,-540 z" /></clipPath><clipPath
       id="clipPath308"
       clipPathUnits="userSpaceOnUse"><path
         style="clip-rule:evenodd"
         id="path310"
         d="M 1.4305e-5,0 960.00001,0 l 0,540 -959.999995695,0 0,-540 z" /></clipPath><clipPath
       id="clipPath330"
       clipPathUnits="userSpaceOnUse"><path
         style="clip-rule:evenodd"
         id="path332"
         d="M 1.4305e-5,0 960.00001,0 l 0,540 -959.999995695,0 0,-540 z" /></clipPath></defs><g
     transform="matrix(1.25,0,0,-1.25,0,675)"
     id="g10"><g
       id="g12"><g
         clip-path="url(#clipPath16)"
         id="g14"><path
           id="path20"
           style="fill:#ffffff;fill-opacity:1;fill-rule:evenodd;stroke:none"
           d="m 0,6.1035e-5 960,0 0,539.999998965 -960,0 L 0,6.1035e-5 Z" /></g></g><path
       id="path22"
       style="fill:#a5a5a5;fill-opacity:1;fill-rule:evenodd;stroke:none"
       d="m 202.2,207 362.76,0 0,177.96 -362.76,0 0,-177.96 z" /><path
       id="path24"
       style="fill:none;stroke:#787878;stroke-width:0.95999998;stroke-linecap:butt;stroke-linejoin:miter;stroke-miterlimit:10;stroke-dasharray:none;stroke-opacity:1"
       d="m 202.2,207 362.76,0 0,177.96 -362.76,0 0,-177.96 z" /><g
       id="g26"><g
         clip-path="url(#clipPath30)"
         id="g28"><text
           id="text34"
           style="font-variant:normal;font-weight:normal;font-size:18px;font-family:Calibri;-inkscape-font-specification:Calibri;writing-mode:lr-tb;fill:#ffffff;fill-opacity:1;fill-rule:nonzero;stroke:none"
           transform="matrix(1,0,0,-1,500.28,214.3)"><tspan
             id="tspan36"
             y="0"
             x="0 9.4499998 18.360001 24.120001 33.084 40.698002 46.728001 52.074001">detect()</tspan></text>
</g></g><path
       id="path38"
       style="fill:#5b9bd5;fill-opacity:1;fill-rule:evenodd;stroke:none"
       d="m 219.24,312.6 59.04,0 0,43.44 -59.04,0 0,-43.44 z" /><path
       id="path40"
       style="fill:none;stroke:#41719c;stroke-width:0.95999998;stroke-linecap:butt;stroke-linejoin:miter;stroke-miterlimit:10;stroke-dasharray:none;stroke-opacity:1"
       d="m 219.24,312.6 59.04,0 0,43.44 -59.04,0 0,-43.44 z" /><g
       id="g42"><g
         clip-path="url(#clipPath46)"
         id="g44"><text
           id="text50"
           style="font-variant:normal;font-weight:normal;font-size:18.02400017px;font-family:Calibri;-inkscape-font-specification:Calibri;writing-mode:lr-tb;fill:#ffffff;fill-opacity:1;fill-rule:nonzero;stroke:none"
           transform="matrix(1,0,0,-1,229.61,328.27)"><tspan
             id="tspan52"
             y="0"
             x="0 7.8043919 16.437887 23.287008">Fast</tspan></text>
</g></g><g
       id="g54"><g
         clip-path="url(#clipPath58)"
         id="g56"><text
           id="text62"
           style="font-variant:normal;font-weight:normal;font-size:18.02400017px;font-family:Calibri;-inkscape-font-specification:Calibri;writing-mode:lr-tb;fill:#ffffff;fill-opacity:1;fill-rule:nonzero;stroke:none"
           transform="matrix(1,0,0,-1,258.89,328.27)"><tspan
             id="tspan64"
             y="0"
             x="0">9</tspan></text>
</g></g><path
       id="path66"
       style="fill:#5b9bd5;fill-opacity:1;fill-rule:evenodd;stroke:none"
       d="m 219.24,255.12 59.04,0 0,43.56 -59.04,0 0,-43.56 z" /><path
       id="path68"
       style="fill:none;stroke:#41719c;stroke-width:0.95999998;stroke-linecap:butt;stroke-linejoin:miter;stroke-miterlimit:10;stroke-dasharray:none;stroke-opacity:1"
       d="m 219.24,255.12 59.04,0 0,43.56 -59.04,0 0,-43.56 z" /><g
       id="g70"><g
         clip-path="url(#clipPath74)"
         id="g72"><text
           id="text78"
           style="font-variant:normal;font-weight:normal;font-size:18.02400017px;font-family:Calibri;-inkscape-font-specification:Calibri;writing-mode:lr-tb;fill:#ffffff;fill-opacity:1;fill-rule:nonzero;stroke:none"
           transform="matrix(1,0,0,-1,227.09,270.86)"><tspan
             id="tspan80"
             y="0"
             x="0 11.156856 19.790352 26.080729 32.280983 36.354408">Harris</tspan></text>
</g></g><path
       id="path82"
       style="fill:#ed7d31;fill-opacity:1;fill-rule:evenodd;stroke:none"
       d="m 303.48,231.24 173.64,0 0,133.68 -173.64,0 0,-133.68 z" /><path
       id="path84"
       style="fill:none;stroke:#ae5a21;stroke-width:0.95999998;stroke-linecap:butt;stroke-linejoin:miter;stroke-miterlimit:10;stroke-dasharray:none;stroke-opacity:1"
       d="m 303.48,231.24 173.64,0 0,133.68 -173.64,0 0,-133.68 z" /><g
       id="g86"><g
         clip-path="url(#clipPath90)"
         id="g88"><text
           id="text94"
           style="font-variant:normal;font-weight:normal;font-size:18px;font-family:Calibri;-inkscape-font-specification:Calibri;writing-mode:lr-tb;fill:#ffffff;fill-opacity:1;fill-rule:nonzero;stroke:none"
           transform="matrix(1,0,0,-1,434.42,237.98)"><tspan
             id="tspan96"
             y="0"
             x="0 10.422 20.195999">ARM</tspan></text>
</g></g><path
       id="path98"
       style="fill:#5b9bd5;fill-opacity:1;fill-rule:evenodd;stroke:none"
       d="m 314.76,255.12 41.28,0 0,100.92 -41.28,0 0,-100.92 z" /><path
       id="path100"
       style="fill:none;stroke:#41719c;stroke-width:0.95999998;stroke-linecap:butt;stroke-linejoin:miter;stroke-miterlimit:10;stroke-dasharray:none;stroke-opacity:1"
       d="m 314.76,255.12 41.28,0 0,100.92 -41.28,0 0,-100.92 z" /><g
       id="g102"><g
         clip-path="url(#clipPath106)"
         id="g104"><text
           id="text110"
           style="font-variant:normal;font-weight:normal;font-size:18px;font-family:Calibri;-inkscape-font-specification:Calibri;writing-mode:lr-tb;fill:#ffffff;fill-opacity:1;fill-rule:nonzero;stroke:none"
           transform="matrix(-4.4e-8,-1,-1,4.4e-8,329.45,334.73)"><tspan
             id="tspan112"
             y="0"
             x="0 15.39 24.011999 33.462002 42.911999 51.948002">Mapper</tspan></text>
</g></g><path
       id="path114"
       style="fill:#5b9bd5;fill-opacity:1;fill-rule:nonzero;stroke:none"
       d="m 278.64,334.98 30.72,-13 -0.61,-1.43 -30.71,12.99 0.6,1.44 z m 30.66,-10.56 4.36,-5.1 -6.69,-0.43 2.33,5.53 z" /><path
       id="path116"
       style="fill:#5b9bd5;fill-opacity:1;fill-rule:nonzero;stroke:none"
       d="m 278.61,276.12 30.64,11.49 -0.54,1.46 -30.64,-11.48 0.54,-1.47 z m 30.49,9.06 4.56,4.92 -6.67,0.7 2.11,-5.62 z" /><path
       id="path118"
       style="fill:#5b9bd5;fill-opacity:1;fill-rule:evenodd;stroke:none"
       d="m 372.24,255.12 41.28,0 0,100.92 -41.28,0 0,-100.92 z" /><path
       id="path120"
       style="fill:none;stroke:#41719c;stroke-width:0.95999998;stroke-linecap:butt;stroke-linejoin:miter;stroke-miterlimit:10;stroke-dasharray:none;stroke-opacity:1"
       d="m 372.24,255.12 41.28,0 0,100.92 -41.28,0 0,-100.92 z" /><g
       id="g122"><g
         clip-path="url(#clipPath126)"
         id="g124"><text
           id="text130"
           style="font-variant:normal;font-weight:normal;font-size:18px;font-family:Calibri;-inkscape-font-specification:Calibri;writing-mode:lr-tb;fill:#ffffff;fill-opacity:1;fill-rule:nonzero;stroke:none"
           transform="matrix(-4.4e-8,-1,-1,4.4e-8,386.93,328.49)"><tspan
             id="tspan132"
             y="0"
             x="0 8.2620001 17.747999 24.030001 30.006001 34.074001">Sort N</tspan></text>
</g></g><path
       id="path134"
       style="fill:#5b9bd5;fill-opacity:1;fill-rule:nonzero;stroke:none"
       d="m 356.1,306.36 11.21,0 0,-1.56 -11.21,0 0,1.56 z m 10.21,2.22 6,-3 -6,-3 0,6 z" /><path
       id="path136"
       style="fill:#5b9bd5;fill-opacity:1;fill-rule:nonzero;stroke:none"
       d="m 413.58,306.36 12.54,0 0,-1.56 -12.54,0 0,1.56 z m 11.54,2.22 6,-3 -6,-3 0,6 z" /><path
       id="path138"
       style="fill:#5b9bd5;fill-opacity:1;fill-rule:evenodd;stroke:none"
       d="m 645.84,336.72 c 0,-3.05 22.48,-5.52 50.22,-5.52 27.74,0 50.22,2.47 50.22,5.52 l 0,-33.12 c 0,-3.05 -22.48,-5.52 -50.22,-5.52 -27.74,0 -50.22,2.47 -50.22,5.52 l 0,33.12 z" /><path
       id="path140"
       style="fill:#9dc3e6;fill-opacity:1;fill-rule:evenodd;stroke:none"
       d="m 645.84,336.72 c 0,3.05 22.48,5.52 50.22,5.52 27.74,0 50.22,-2.47 50.22,-5.52 0,-3.05 -22.48,-5.52 -50.22,-5.52 -27.74,0 -50.22,2.47 -50.22,5.52 z" /><path
       id="path142"
       style="fill:none;stroke:#41719c;stroke-width:0.95999998;stroke-linecap:butt;stroke-linejoin:miter;stroke-miterlimit:10;stroke-dasharray:none;stroke-opacity:1"
       d="m 746.28,336.72 c 0,-3.05 -22.48,-5.52 -50.22,-5.52 -27.74,0 -50.22,2.47 -50.22,5.52 0,3.05 22.48,5.52 50.22,5.52 27.74,0 50.22,-2.47 50.22,-5.52 z m 0,0 0,-33.12 c 0,-3.05 -22.48,-5.52 -50.22,-5.52 -27.74,0 -50.22,2.47 -50.22,5.52 l 0,33.12" /><g
       id="g144"><g
         clip-path="url(#clipPath148)"
         id="g146"><text
           id="text152"
           style="font-variant:normal;font-weight:normal;font-size:18px;font-family:Calibri;-inkscape-font-specification:Calibri;writing-mode:lr-tb;fill:#ffffff;fill-opacity:1;fill-rule:nonzero;stroke:none"
           transform="matrix(1,0,0,-1,660.38,311.3)"><tspan
             id="tspan154"
             y="0"
             x="0 9 17.874001 26.028 35.478001 44.964001 49.104 58.428001 64.458">Keypoints</tspan></text>
</g></g><path
       id="path156"
       style="fill:#a5a5a5;fill-opacity:1;fill-rule:evenodd;stroke:none"
       d="m 49.92,312.84 c 0,-3.05 20.846,-5.52 46.56,-5.52 25.71,0 46.56,2.47 46.56,5.52 l 0,-33.12 c 0,-3.05 -20.85,-5.52 -46.56,-5.52 -25.714,0 -46.56,2.47 -46.56,5.52 l 0,33.12 z" /><path
       id="path158"
       style="fill:#c9c9c9;fill-opacity:1;fill-rule:evenodd;stroke:none"
       d="m 49.92,312.84 c 0,3.05 20.846,5.52 46.56,5.52 25.71,0 46.56,-2.47 46.56,-5.52 0,-3.05 -20.85,-5.52 -46.56,-5.52 -25.714,0 -46.56,2.47 -46.56,5.52 z" /><path
       id="path160"
       style="fill:none;stroke:#787878;stroke-width:0.95999998;stroke-linecap:butt;stroke-linejoin:miter;stroke-miterlimit:10;stroke-dasharray:none;stroke-opacity:1"
       d="m 143.04,312.84 c 0,-3.05 -20.85,-5.52 -46.56,-5.52 -25.714,0 -46.56,2.47 -46.56,5.52 0,3.05 20.846,5.52 46.56,5.52 25.71,0 46.56,-2.47 46.56,-5.52 z m 0,0 0,-33.12 c 0,-3.05 -20.85,-5.52 -46.56,-5.52 -25.714,0 -46.56,2.47 -46.56,5.52 l 0,33.12" /><g
       id="g162"><g
         clip-path="url(#clipPath166)"
         id="g164"><text
           id="text170"
           style="font-variant:normal;font-weight:normal;font-size:18px;font-family:Calibri;-inkscape-font-specification:Calibri;writing-mode:lr-tb;fill:#ffffff;fill-opacity:1;fill-rule:nonzero;stroke:none"
           transform="matrix(1,0,0,-1,64.92,287.42)"><tspan
             id="tspan172"
             y="0"
             x="0 4.5599999 18.966">Img</tspan></text>
</g></g><g
       id="g174"><g
         clip-path="url(#clipPath178)"
         id="g176"><text
           id="text182"
           style="font-variant:normal;font-weight:normal;font-size:18px;font-family:Calibri;-inkscape-font-specification:Calibri;writing-mode:lr-tb;fill:#ffffff;fill-opacity:1;fill-rule:nonzero;stroke:none"
           transform="matrix(1,0,0,-1,96.36,287.42)"><tspan
             id="tspan184"
             y="0"
             x="0 8.4779997 14.526 23.4">grey</tspan></text>
</g></g><path
       id="path186"
       style="fill:#5b9bd5;fill-opacity:1;fill-rule:nonzero;stroke:none"
       d="m 143.1,297 54.17,-0.24 -0.01,-1.56 -54.16,0.24 0,1.56 z m 53.18,1.98 5.98,-3.02 -6.01,-2.98 0.03,6 z" /><path
       id="path188"
       style="fill:#5b9bd5;fill-opacity:1;fill-rule:nonzero;stroke:none"
       d="m 202.97,295.6 14.96,33.77 -1.43,0.63 -14.95,-33.76 1.42,-0.64 z m 16.58,31.96 -0.31,6.7 -5.17,-4.27 5.48,-2.43 z" /><path
       id="path190"
       style="fill:#5b9bd5;fill-opacity:1;fill-rule:nonzero;stroke:none"
       d="m 202.84,296.38 13.66,-15.32 -1.17,-1.04 -13.65,15.32 1.16,1.04 z m 14.65,-13.1 1.75,-6.48 -6.23,2.49 4.48,3.99 z" /><path
       id="path192"
       style="fill:#5b9bd5;fill-opacity:1;fill-rule:evenodd;stroke:none"
       d="m 429.72,255.12 41.28,0 0,100.92 -41.28,0 0,-100.92 z" /><path
       id="path194"
       style="fill:none;stroke:#41719c;stroke-width:0.95999998;stroke-linecap:butt;stroke-linejoin:miter;stroke-miterlimit:10;stroke-dasharray:none;stroke-opacity:1"
       d="m 429.72,255.12 41.28,0 0,100.92 -41.28,0 0,-100.92 z" /><g
       id="g196"><g
         clip-path="url(#clipPath200)"
         id="g198"><text
           id="text204"
           style="font-variant:normal;font-weight:normal;font-size:18px;font-family:Calibri;-inkscape-font-specification:Calibri;writing-mode:lr-tb;fill:#ffffff;fill-opacity:1;fill-rule:nonzero;stroke:none"
           transform="matrix(-4.4e-8,-1,-1,4.4e-8,455.23,328.73)"><tspan
             id="tspan206"
             y="0"
             x="0 9.5939999 19.044001 28.548 37.998001 46.188">Chunk </tspan></text>
</g></g><g
       id="g208"><g
         clip-path="url(#clipPath212)"
         id="g210"><text
           id="text216"
           style="font-variant:normal;font-weight:normal;font-size:18.02400017px;font-family:Calibri;-inkscape-font-specification:Calibri;writing-mode:lr-tb;fill:#ffffff;fill-opacity:1;fill-rule:nonzero;stroke:none"
           transform="matrix(-4.4e-8,-1,-1,4.4e-8,433.63,331.37)"><tspan
             id="tspan218"
             y="0"
             x="0 11.931888 17.285015 22.566048 29.613432 38.517288 44.555328">Offsets</tspan></text>
</g></g><path
       id="path220"
       style="fill:#5b9bd5;fill-opacity:1;fill-rule:evenodd;stroke:none"
       d="m 487.2,231.24 68.04,0 0,133.68 -68.04,0 0,-133.68 z" /><path
       id="path222"
       style="fill:none;stroke:#41719c;stroke-width:0.95999998;stroke-linecap:butt;stroke-linejoin:miter;stroke-miterlimit:10;stroke-dasharray:none;stroke-opacity:1"
       d="m 487.2,231.24 68.04,0 0,133.68 -68.04,0 0,-133.68 z" /><g
       id="g224"><g
         clip-path="url(#clipPath228)"
         id="g226"><text
           id="text232"
           style="font-variant:normal;font-weight:normal;font-size:18px;font-family:Calibri;-inkscape-font-specification:Calibri;writing-mode:lr-tb;fill:#ffffff;fill-opacity:1;fill-rule:nonzero;stroke:none"
           transform="matrix(-4.4e-8,-1,-1,4.4e-8,536.88,329.74)"><tspan
             id="tspan234"
             y="0"
             x="0 4.5359998 13.914 19.674 28.638 38.141998 45.18 49.32 55.349998 63.504002">Intensity </tspan></text>
</g></g><g
       id="g236"><g
         clip-path="url(#clipPath240)"
         id="g238"><text
           id="text244"
           style="font-variant:normal;font-weight:normal;font-size:18px;font-family:Calibri;-inkscape-font-specification:Calibri;writing-mode:lr-tb;fill:#ffffff;fill-opacity:1;fill-rule:nonzero;stroke:none"
           transform="matrix(-4.4e-8,-1,-1,4.4e-8,515.28,350.16)"><tspan
             id="tspan246"
             y="0"
             x="0 9.5939999 18.558001 28.007999 33.966 39.959999 49.445999 53.514 62.964001 67.176003">Centroid m</tspan></text>
</g></g><g
       id="g248"><g
         clip-path="url(#clipPath252)"
         id="g250"><text
           id="text256"
           style="font-variant:normal;font-weight:normal;font-size:18px;font-family:Calibri;-inkscape-font-specification:Calibri;writing-mode:lr-tb;fill:#ffffff;fill-opacity:1;fill-rule:nonzero;stroke:none"
           transform="matrix(-4.4e-8,-1,-1,4.4e-8,515.28,268.54)"><tspan
             id="tspan258"
             y="0"
             x="0 9.1199999">01</tspan></text>
</g></g><g
       id="g260"><g
         clip-path="url(#clipPath264)"
         id="g262"><text
           id="text268"
           style="font-variant:normal;font-weight:normal;font-size:18px;font-family:Calibri;-inkscape-font-specification:Calibri;writing-mode:lr-tb;fill:#ffffff;fill-opacity:1;fill-rule:nonzero;stroke:none"
           transform="matrix(-4.4e-8,-1,-1,4.4e-8,515.28,250.3)"><tspan
             id="tspan270"
             y="0"
             x="0 4.4400001">, </tspan></text>
</g></g><g
       id="g272"><g
         clip-path="url(#clipPath276)"
         id="g274"><text
           id="text280"
           style="font-variant:normal;font-weight:normal;font-size:18px;font-family:Calibri;-inkscape-font-specification:Calibri;writing-mode:lr-tb;fill:#ffffff;fill-opacity:1;fill-rule:nonzero;stroke:none"
           transform="matrix(-4.4e-8,-1,-1,4.4e-8,493.68,314.38)"><tspan
             id="tspan282"
             y="0"
             x="0">m</tspan></text>
</g></g><g
       id="g284"><g
         clip-path="url(#clipPath288)"
         id="g286"><text
           id="text292"
           style="font-variant:normal;font-weight:normal;font-size:18px;font-family:Calibri;-inkscape-font-specification:Calibri;writing-mode:lr-tb;fill:#ffffff;fill-opacity:1;fill-rule:nonzero;stroke:none"
           transform="matrix(-4.4e-8,-1,-1,4.4e-8,493.68,299.98)"><tspan
             id="tspan294"
             y="0"
             x="0 9.1199999">10</tspan></text>
</g></g><path
       id="path296"
       style="fill:#5b9bd5;fill-opacity:1;fill-rule:nonzero;stroke:none"
       d="m 471.06,306.36 12.54,0 0,-1.56 -12.54,0 0,1.56 z m 11.54,2.22 6,-3 -6,-3 0,6 z" /><path
       id="path298"
       style="fill:#5b9bd5;fill-opacity:1;fill-rule:evenodd;stroke:none"
       d="m 646.08,269.76 c 0,-3.05 22.43,-5.52 50.1,-5.52 27.67,0 50.1,2.47 50.1,5.52 l 0,-33.12 c 0,-3.05 -22.43,-5.52 -50.1,-5.52 -27.67,0 -50.1,2.47 -50.1,5.52 l 0,33.12 z" /><path
       id="path300"
       style="fill:#9dc3e6;fill-opacity:1;fill-rule:evenodd;stroke:none"
       d="m 646.08,269.76 c 0,3.05 22.43,5.52 50.1,5.52 27.67,0 50.1,-2.47 50.1,-5.52 0,-3.05 -22.43,-5.52 -50.1,-5.52 -27.67,0 -50.1,2.47 -50.1,5.52 z" /><path
       id="path302"
       style="fill:none;stroke:#41719c;stroke-width:0.95999998;stroke-linecap:butt;stroke-linejoin:miter;stroke-miterlimit:10;stroke-dasharray:none;stroke-opacity:1"
       d="m 746.28,269.76 c 0,-3.05 -22.43,-5.52 -50.1,-5.52 -27.67,0 -50.1,2.47 -50.1,5.52 0,3.05 22.43,5.52 50.1,5.52 27.67,0 50.1,-2.47 50.1,-5.52 z m 0,0 0,-33.12 c 0,-3.05 -22.43,-5.52 -50.1,-5.52 -27.67,0 -50.1,2.47 -50.1,5.52 l 0,33.12" /><g
       id="g304"><g
         clip-path="url(#clipPath308)"
         id="g306"><text
           id="text312"
           style="font-variant:normal;font-weight:normal;font-size:18px;font-family:Calibri;-inkscape-font-specification:Calibri;writing-mode:lr-tb;fill:#ffffff;fill-opacity:1;fill-rule:nonzero;stroke:none"
           transform="matrix(1,0,0,-1,654.29,244.39)"><tspan
             id="tspan314"
             y="0"
             x="0 11.916 18.125999 22.212 31.176001 40.571999 46.332001 54.846001 60.875999 64.926003 74.412003">Orientation</tspan></text>
</g></g><path
       id="path316"
       style="fill:#5b9bd5;fill-opacity:1;fill-rule:nonzero;stroke:none"
       d="m 565.24,295.2 76.07,22.72 -0.45,1.5 -76.06,-22.73 0.44,-1.49 z m 75.75,20.31 4.89,4.59 -6.61,1.16 1.72,-5.75 z" /><path
       id="path318"
       style="fill:#5b9bd5;fill-opacity:1;fill-rule:nonzero;stroke:none"
       d="m 565.38,296.55 76.68,-40.42 -0.72,-1.38 -76.68,40.42 0.72,1.38 z m 76.83,-37.99 3.91,-5.45 -6.7,0.14 2.79,5.31 z" /><path
       id="path320"
       style="fill:#5b9bd5;fill-opacity:1;fill-rule:evenodd;stroke:none"
       d="m 398.4,455.16 c 0,-3.05 22.51,-5.52 50.28,-5.52 27.77,0 50.28,2.47 50.28,5.52 l 0,-33.12 c 0,-3.05 -22.51,-5.52 -50.28,-5.52 -27.77,0 -50.28,2.47 -50.28,5.52 l 0,33.12 z" /><path
       id="path322"
       style="fill:#9dc3e6;fill-opacity:1;fill-rule:evenodd;stroke:none"
       d="m 398.4,455.16 c 0,3.05 22.51,5.52 50.28,5.52 27.77,0 50.28,-2.47 50.28,-5.52 0,-3.05 -22.51,-5.52 -50.28,-5.52 -27.77,0 -50.28,2.47 -50.28,5.52 z" /><path
       id="path324"
       style="fill:none;stroke:#41719c;stroke-width:0.95999998;stroke-linecap:butt;stroke-linejoin:miter;stroke-miterlimit:10;stroke-dasharray:none;stroke-opacity:1"
       d="m 498.96,455.16 c 0,-3.05 -22.51,-5.52 -50.28,-5.52 -27.77,0 -50.28,2.47 -50.28,5.52 0,3.05 22.51,5.52 50.28,5.52 27.77,0 50.28,-2.47 50.28,-5.52 z m 0,0 0,-33.12 c 0,-3.05 -22.51,-5.52 -50.28,-5.52 -27.77,0 -50.28,2.47 -50.28,5.52 l 0,33.12" /><g
       id="g326"><g
         clip-path="url(#clipPath330)"
         id="g328"><text
           id="text334"
           style="font-variant:normal;font-weight:normal;font-size:18px;font-family:Calibri;-inkscape-font-specification:Calibri;writing-mode:lr-tb;fill:#ffffff;fill-opacity:1;fill-rule:nonzero;stroke:none"
           transform="matrix(1,0,0,-1,422.98,429.86)"><tspan
             id="tspan336"
             y="0"
             x="0 11.916 17.298 22.572001 29.610001 38.574001 44.532001">Offsets</tspan></text>
</g></g><path
       id="path338"
       style="fill:#5b9bd5;fill-opacity:1;fill-rule:nonzero;stroke:none"
       d="m 449.52,355.02 0,55.6 -1.56,0 0,-55.6 1.56,0 z m 2.22,54.6 -3,6 -3,-6 6,0 z" /></g></svg>