<?xml version="1.0" encoding="UTF-8" standalone="no"?>
<svg
   xmlns:dc="http://purl.org/dc/elements/1.1/"
   xmlns:cc="http://creativecommons.org/ns#"
   xmlns:rdf="http://www.w3.org/1999/02/22-rdf-syntax-ns#"
   xmlns:svg="http://www.w3.org/2000/svg"
   xmlns="http://www.w3.org/2000/svg"
   viewBox="0 0 1200 675"
   height="675"
   width="1200"
   xml:space="preserve"
   version="1.1"
   id="svg2"><metadata
     id="metadata8"><rdf:RDF><cc:Work
         rdf:about=""><dc:format>image/svg+xml</dc:format><dc:type
           rdf:resource="http://purl.org/dc/dcmitype/StillImage" /></cc:Work></rdf:RDF></metadata><defs
     id="defs6"><clipPath
       id="clipPath16"
       clipPathUnits="userSpaceOnUse"><path
         style="clip-rule:evenodd"
         id="path18"
         d="m 0,1.2207e-4 960,0 0,539.99999793 -960,0 L 0,1.2207e-4 Z" /></clipPath><clipPath
       id="clipPath30"
       clipPathUnits="userSpaceOnUse"><path
         style="clip-rule:evenodd"
         id="path32"
         d="M 1.4305e-5,0 960.00001,0 l 0,540 -959.999995695,0 0,-540 z" /></clipPath><clipPath
       id="clipPath46"
       clipPathUnits="userSpaceOnUse"><path
         style="clip-rule:evenodd"
         id="path48"
         d="M 1.4305e-5,0 960.00001,0 l 0,540 -959.999995695,0 0,-540 z" /></clipPath><clipPath
       id="clipPath64"
       clipPathUnits="userSpaceOnUse"><path
         style="clip-rule:evenodd"
         id="path66"
         d="M 1.4305e-5,0 960.00001,0 l 0,540 -959.999995695,0 0,-540 z" /></clipPath><clipPath
       id="clipPath82"
       clipPathUnits="userSpaceOnUse"><path
         style="clip-rule:evenodd"
         id="path84"
         d="M 1.4305e-5,0 960.00001,0 l 0,540 -959.999995695,0 0,-540 z" /></clipPath><clipPath
       id="clipPath94"
       clipPathUnits="userSpaceOnUse"><path
         style="clip-rule:evenodd"
         id="path96"
         d="M 1.4305e-5,0 960.00001,0 l 0,540 -959.999995695,0 0,-540 z" /></clipPath><clipPath
       id="clipPath106"
       clipPathUnits="userSpaceOnUse"><path
         style="clip-rule:evenodd"
         id="path108"
         d="M 1.4305e-5,0 960.00001,0 l 0,540 -959.999995695,0 0,-540 z" /></clipPath><clipPath
       id="clipPath130"
       clipPathUnits="userSpaceOnUse"><path
         style="clip-rule:evenodd"
         id="path132"
         d="M 1.4305e-5,0 960.00001,0 l 0,540 -959.999995695,0 0,-540 z" /></clipPath><clipPath
       id="clipPath148"
       clipPathUnits="userSpaceOnUse"><path
         style="clip-rule:evenodd"
         id="path150"
         d="M 1.4305e-5,0 960.00001,0 l 0,540 -959.999995695,0 0,-540 z" /></clipPath><clipPath
       id="clipPath168"
       clipPathUnits="userSpaceOnUse"><path
         style="clip-rule:evenodd"
         id="path170"
         d="M 1.4305e-5,0 960.00001,0 l 0,540 -959.999995695,0 0,-540 z" /></clipPath></defs><g
     transform="matrix(1.25,0,0,-1.25,0,675)"
     id="g10"><g
       id="g12"><g
         clip-path="url(#clipPath16)"
         id="g14"><path
           id="path20"
           style="fill:#ffffff;fill-opacity:1;fill-rule:evenodd;stroke:none"
           d="m 0,6.1035e-5 960,0 0,539.999998965 -960,0 L 0,6.1035e-5 Z" /></g></g><path
       id="path22"
       style="fill:#a5a5a5;fill-opacity:1;fill-rule:evenodd;stroke:none"
       d="m 305.4,232.44 135.6,0 0,168.96 -135.6,0 0,-168.96 z" /><path
       id="path24"
       style="fill:none;stroke:#787878;stroke-width:0.95999998;stroke-linecap:butt;stroke-linejoin:miter;stroke-miterlimit:10;stroke-dasharray:none;stroke-opacity:1"
       d="m 305.4,232.44 135.6,0 0,168.96 -135.6,0 0,-168.96 z" /><g
       id="g26"><g
         clip-path="url(#clipPath30)"
         id="g28"><text
           id="text34"
           style="font-variant:normal;font-weight:normal;font-size:18px;font-family:Calibri;-inkscape-font-specification:Calibri;writing-mode:lr-tb;fill:#ffffff;fill-opacity:1;fill-rule:nonzero;stroke:none"
           transform="matrix(1,0,0,-1,357.89,235.25)"><tspan
             id="tspan36"
             y="0"
             x="0 7.434 16.92 31.302 40.751999 50.256001 56.015999 64.980003 70.433998">compute()</tspan></text>
</g></g><path
       id="path38"
       style="fill:#5b9bd5;fill-opacity:1;fill-rule:evenodd;stroke:none"
       d="m 322.92,254.28 100.56,0 0,132.48 -100.56,0 0,-132.48 z" /><path
       id="path40"
       style="fill:none;stroke:#41719c;stroke-width:0.95999998;stroke-linecap:butt;stroke-linejoin:miter;stroke-miterlimit:10;stroke-dasharray:none;stroke-opacity:1"
       d="m 322.92,254.28 100.56,0 0,132.48 -100.56,0 0,-132.48 z" /><g
       id="g42"><g
         clip-path="url(#clipPath46)"
         id="g44"><text
           id="text50"
           style="font-variant:normal;font-weight:normal;font-size:18px;font-family:Calibri;-inkscape-font-specification:Calibri;writing-mode:lr-tb;fill:#ffffff;fill-opacity:1;fill-rule:nonzero;stroke:none"
           transform="matrix(-4.4e-8,-1,-1,4.4e-8,367.25,344.23)"><tspan
             id="tspan52"
             y="0"
             x="0 6.2820001 16.073999 25.848 30.384001 39.167999">rBRIEF</tspan></text>
</g></g><path
       id="path54"
       style="fill:#5b9bd5;fill-opacity:1;fill-rule:evenodd;stroke:none"
       d="m 496.44,333.6 c 0,-3.05 22.16,-5.52 49.5,-5.52 27.34,0 49.5,2.47 49.5,5.52 l 0,-33.12 c 0,-3.05 -22.16,-5.52 -49.5,-5.52 -27.34,0 -49.5,2.47 -49.5,5.52 l 0,33.12 z" /><path
       id="path56"
       style="fill:#9dc3e6;fill-opacity:1;fill-rule:evenodd;stroke:none"
       d="m 496.44,333.6 c 0,3.05 22.16,5.52 49.5,5.52 27.34,0 49.5,-2.47 49.5,-5.52 0,-3.05 -22.16,-5.52 -49.5,-5.52 -27.34,0 -49.5,2.47 -49.5,5.52 z" /><path
       id="path58"
       style="fill:none;stroke:#41719c;stroke-width:0.95999998;stroke-linecap:butt;stroke-linejoin:miter;stroke-miterlimit:10;stroke-dasharray:none;stroke-opacity:1"
       d="m 595.44,333.6 c 0,-3.05 -22.16,-5.52 -49.5,-5.52 -27.34,0 -49.5,2.47 -49.5,5.52 0,3.05 22.16,5.52 49.5,5.52 27.34,0 49.5,-2.47 49.5,-5.52 z m 0,0 0,-33.12 c 0,-3.05 -22.16,-5.52 -49.5,-5.52 -27.34,0 -49.5,2.47 -49.5,5.52 l 0,33.12" /><g
       id="g60"><g
         clip-path="url(#clipPath64)"
         id="g62"><text
           id="text68"
           style="font-variant:normal;font-weight:normal;font-size:18px;font-family:Calibri;-inkscape-font-specification:Calibri;writing-mode:lr-tb;fill:#ffffff;fill-opacity:1;fill-rule:nonzero;stroke:none"
           transform="matrix(1,0,0,-1,504.65,308.18)"><tspan
             id="tspan70"
             y="0"
             x="0 11.07 20.034 27.072001 34.686001 40.967999 45 54.360001 60.245998 69.732002 75.599998">Descriptors</tspan></text>
</g></g><path
       id="path72"
       style="fill:#a5a5a5;fill-opacity:1;fill-rule:evenodd;stroke:none"
       d="m 162.96,285.57 c 0,-3.66 23.42,-6.63 52.32,-6.63 28.9,0 52.32,2.97 52.32,6.63 l 0,-39.78 c 0,-3.66 -23.42,-6.63 -52.32,-6.63 -28.9,0 -52.32,2.97 -52.32,6.63 l 0,39.78 z" /><path
       id="path74"
       style="fill:#c9c9c9;fill-opacity:1;fill-rule:evenodd;stroke:none"
       d="m 162.96,285.57 c 0,3.66 23.42,6.63 52.32,6.63 28.9,0 52.32,-2.97 52.32,-6.63 0,-3.66 -23.42,-6.63 -52.32,-6.63 -28.9,0 -52.32,2.97 -52.32,6.63 z" /><path
       id="path76"
       style="fill:none;stroke:#787878;stroke-width:0.95999998;stroke-linecap:butt;stroke-linejoin:miter;stroke-miterlimit:10;stroke-dasharray:none;stroke-opacity:1"
       d="m 267.6,285.57 c 0,-3.66 -23.42,-6.63 -52.32,-6.63 -28.9,0 -52.32,2.97 -52.32,6.63 0,3.66 23.42,6.63 52.32,6.63 28.9,0 52.32,-2.97 52.32,-6.63 z m 0,0 0,-39.78 c 0,-3.66 -23.42,-6.63 -52.32,-6.63 -28.9,0 -52.32,2.97 -52.32,6.63 l 0,39.78" /><g
       id="g78"><g
         clip-path="url(#clipPath82)"
         id="g80"><text
           id="text86"
           style="font-variant:normal;font-weight:normal;font-size:18px;font-family:Calibri;-inkscape-font-specification:Calibri;writing-mode:lr-tb;fill:#ffffff;fill-opacity:1;fill-rule:nonzero;stroke:none"
           transform="matrix(1,0,0,-1,177.48,267.07)"><tspan
             id="tspan88"
             y="0"
             x="0 8.2620001 22.643999 32.130001 41.616001 47.646 57.096001 66.096001 75.545998">Smoothed </tspan></text>
</g></g><g
       id="g90"><g
         clip-path="url(#clipPath94)"
         id="g92"><text
           id="text98"
           style="font-variant:normal;font-weight:normal;font-size:18px;font-family:Calibri;-inkscape-font-specification:Calibri;writing-mode:lr-tb;fill:#ffffff;fill-opacity:1;fill-rule:nonzero;stroke:none"
           transform="matrix(1,0,0,-1,182.4,245.47)"><tspan
             id="tspan100"
             y="0"
             x="0 4.5599999 18.966">Img</tspan></text>
</g></g><g
       id="g102"><g
         clip-path="url(#clipPath106)"
         id="g104"><text
           id="text110"
           style="font-variant:normal;font-weight:normal;font-size:18px;font-family:Calibri;-inkscape-font-specification:Calibri;writing-mode:lr-tb;fill:#ffffff;fill-opacity:1;fill-rule:nonzero;stroke:none"
           transform="matrix(1,0,0,-1,213.86,245.47)"><tspan
             id="tspan112"
             y="0"
             x="0 11.358 17.406 26.280001">Grey</tspan></text>
</g></g><path
       id="path114"
       style="fill:#5b9bd5;fill-opacity:1;fill-rule:nonzero;stroke:none"
       d="m 268.26,375.92 44.98,-54.66 -1.21,-1 -44.97,54.66 1.2,1 z m 46.06,-52.48 1.49,-6.54 -6.13,2.73 4.64,3.81 z" /><path
       id="path116"
       style="fill:#5b9bd5;fill-opacity:1;fill-rule:nonzero;stroke:none"
       d="m 268.23,265.07 44.73,47.61 -1.14,1.07 -44.73,-47.61 1.14,-1.07 z m 45.66,45.36 1.92,6.43 -6.29,-2.32 4.37,-4.11 z" /><path
       id="path118"
       style="fill:#5b9bd5;fill-opacity:1;fill-rule:nonzero;stroke:none"
       d="m 441.06,316.12 50.43,0.07 0,1.56 -50.43,-0.07 0,-1.56 z m 49.43,-2.15 6,3.01 -6.01,2.99 0.01,-6 z" /><path
       id="path120"
       style="fill:#5b9bd5;fill-opacity:1;fill-rule:evenodd;stroke:none"
       d="m 162.96,394.64 c 0,-3.54 23.42,-6.41 52.32,-6.41 28.9,0 52.32,2.87 52.32,6.41 l 0,-38.44 c 0,-3.53 -23.42,-6.4 -52.32,-6.4 -28.9,0 -52.32,2.87 -52.32,6.4 l 0,38.44 z" /><path
       id="path122"
       style="fill:#9dc3e6;fill-opacity:1;fill-rule:evenodd;stroke:none"
       d="m 162.96,394.64 c 0,3.53 23.42,6.4 52.32,6.4 28.9,0 52.32,-2.87 52.32,-6.4 0,-3.54 -23.42,-6.41 -52.32,-6.41 -28.9,0 -52.32,2.87 -52.32,6.41 z" /><path
       id="path124"
       style="fill:none;stroke:#41719c;stroke-width:0.95999998;stroke-linecap:butt;stroke-linejoin:miter;stroke-miterlimit:10;stroke-dasharray:none;stroke-opacity:1"
       d="m 267.6,394.64 c 0,-3.54 -23.42,-6.41 -52.32,-6.41 -28.9,0 -52.32,2.87 -52.32,6.41 0,3.53 23.42,6.4 52.32,6.4 28.9,0 52.32,-2.87 52.32,-6.4 z m 0,0 0,-38.44 c 0,-3.53 -23.42,-6.4 -52.32,-6.4 -28.9,0 -52.32,2.87 -52.32,6.4 l 0,38.44" /><g
       id="g126"><g
         clip-path="url(#clipPath130)"
         id="g128"><text
           id="text134"
           style="font-variant:normal;font-weight:normal;font-size:18px;font-family:Calibri;-inkscape-font-specification:Calibri;writing-mode:lr-tb;fill:#ffffff;fill-opacity:1;fill-rule:nonzero;stroke:none"
           transform="matrix(1,0,0,-1,173.4,366.19)"><tspan
             id="tspan136"
             y="0"
             x="0 11.916 18.143999 22.23 31.194 40.59 46.349998 54.863998 60.894001 64.944 74.43">Orientation</tspan></text>
</g></g><path
       id="path138"
       style="fill:#5b9bd5;fill-opacity:1;fill-rule:evenodd;stroke:none"
       d="m 163.68,339.8 c 0,-3.54 23.42,-6.41 52.32,-6.41 28.9,0 52.32,2.87 52.32,6.41 l 0,-38.44 c 0,-3.53 -23.42,-6.4 -52.32,-6.4 -28.9,0 -52.32,2.87 -52.32,6.4 l 0,38.44 z" /><path
       id="path140"
       style="fill:#9dc3e6;fill-opacity:1;fill-rule:evenodd;stroke:none"
       d="m 163.68,339.8 c 0,3.53 23.42,6.4 52.32,6.4 28.9,0 52.32,-2.87 52.32,-6.4 0,-3.54 -23.42,-6.41 -52.32,-6.41 -28.9,0 -52.32,2.87 -52.32,6.41 z" /><path
       id="path142"
       style="fill:none;stroke:#41719c;stroke-width:0.95999998;stroke-linecap:butt;stroke-linejoin:miter;stroke-miterlimit:10;stroke-dasharray:none;stroke-opacity:1"
       d="m 268.32,339.8 c 0,-3.54 -23.42,-6.41 -52.32,-6.41 -28.9,0 -52.32,2.87 -52.32,6.41 0,3.53 23.42,6.4 52.32,6.4 28.9,0 52.32,-2.87 52.32,-6.4 z m 0,0 0,-38.44 c 0,-3.53 -23.42,-6.4 -52.32,-6.4 -28.9,0 -52.32,2.87 -52.32,6.4 l 0,38.44" /><g
       id="g144"><g
         clip-path="url(#clipPath148)"
         id="g146"><text
           id="text152"
           style="font-variant:normal;font-weight:normal;font-size:18px;font-family:Calibri;-inkscape-font-specification:Calibri;writing-mode:lr-tb;fill:#ffffff;fill-opacity:1;fill-rule:nonzero;stroke:none"
           transform="matrix(1,0,0,-1,189.17,311.28)"><tspan
             id="tspan154"
             y="0"
             x="0 8.8739996 17.388 23.148001 28.908001 37.872002 44.153999">Pattern</tspan></text>
</g></g><path
       id="path156"
       style="fill:#5b9bd5;fill-opacity:1;fill-rule:nonzero;stroke:none"
       d="m 268.46,321.24 32.16,-3.15 -0.15,-1.55 -32.17,3.14 0.16,1.56 z m 31.38,-0.84 5.68,-3.57 -6.26,-2.41 0.58,5.98 z" /><path
       id="path158"
       style="fill:#5b9bd5;fill-opacity:1;fill-rule:evenodd;stroke:none"
       d="m 322.92,469.8 c 0,-3.05 22.51,-5.52 50.28,-5.52 27.77,0 50.28,2.47 50.28,5.52 l 0,-33.12 c 0,-3.05 -22.51,-5.52 -50.28,-5.52 -27.77,0 -50.28,2.47 -50.28,5.52 l 0,33.12 z" /><path
       id="path160"
       style="fill:#9dc3e6;fill-opacity:1;fill-rule:evenodd;stroke:none"
       d="m 322.92,469.8 c 0,3.05 22.51,5.52 50.28,5.52 27.77,0 50.28,-2.47 50.28,-5.52 0,-3.05 -22.51,-5.52 -50.28,-5.52 -27.77,0 -50.28,2.47 -50.28,5.52 z" /><path
       id="path162"
       style="fill:none;stroke:#41719c;stroke-width:0.95999998;stroke-linecap:butt;stroke-linejoin:miter;stroke-miterlimit:10;stroke-dasharray:none;stroke-opacity:1"
       d="m 423.48,469.8 c 0,-3.05 -22.51,-5.52 -50.28,-5.52 -27.77,0 -50.28,2.47 -50.28,5.52 0,3.05 22.51,5.52 50.28,5.52 27.77,0 50.28,-2.47 50.28,-5.52 z m 0,0 0,-33.12 c 0,-3.05 -22.51,-5.52 -50.28,-5.52 -27.77,0 -50.28,2.47 -50.28,5.52 l 0,33.12" /><g
       id="g164"><g
         clip-path="url(#clipPath168)"
         id="g166"><text
           id="text172"
           style="font-variant:normal;font-weight:normal;font-size:18px;font-family:Calibri;-inkscape-font-specification:Calibri;writing-mode:lr-tb;fill:#ffffff;fill-opacity:1;fill-rule:nonzero;stroke:none"
           transform="matrix(1,0,0,-1,347.47,444.46)"><tspan
             id="tspan174"
             y="0"
             x="0 11.916 17.280001 22.554001 29.591999 38.556 44.514">Offsets</tspan></text>
</g></g><path
       id="path176"
       style="fill:#5b9bd5;fill-opacity:1;fill-rule:nonzero;stroke:none"
       d="m 374.04,431.1 0,-42.85 -1.56,0 0,42.85 1.56,0 z m 3.39,-37.24 -4.17,-7.16 -4.17,7.16 c -0.22,0.37 -0.1,0.85 0.28,1.07 0.37,0.21 0.85,0.09 1.06,-0.28 l 3.5,-6 -1.34,0 3.5,6 c 0.21,0.37 0.69,0.49 1.06,0.28 0.38,-0.22 0.5,-0.7 0.28,-1.07 z" /></g></svg>